<svg xmlns="http://www.w3.org/2000/svg" viewBox="0 0 136 136"><defs><style>.cls-1{fill:gray;}.cls-2{fill:#ff0;}.cls-3,.cls-4{fill:#f7931e;}.cls-3{stroke:#f7931e;stroke-miterlimit:10;stroke-width:4px;}</style></defs><title>jon</title><g id="Layer_2" data-name="Layer 2"><g id="Layer_1-2" data-name="Layer 1"><circle class="cls-1" cx="68" cy="68" r="66"/><path class="cls-2" d="M68,4A64,64,0,1,1,4,68,64.07,64.07,0,0,1,68,4m0-4a68,68,0,1,0,68,68A68,68,0,0,0,68,0Z"/><line class="cls-3" x1="46.05" y1="45.46" x2="46.24" y2="93.18"/><path class="cls-3" d="M108.75,62l-37.58.38-26.1.26.06,13.46,26.1-.26,37.57-.38"/><ellipse class="cls-3" cx="22.66" cy="69.55" rx="6.73" ry="5.74" transform="translate(-47.16 91.4) rotate(-89.33)"/><path class="cls-4" d="M47.08,47.73c-.23,0-.59-.41-.59-1s.36-1.07.61-1.07.6.41.6,1-.36,1.07-.61,1.07Z"/><path class="cls-4" d="M47.11,43.62h0a2.87,2.87,0,0,0-2.59,3.08,2.83,2.83,0,0,0,2.59,3h0a2.87,2.87,0,0,0,2.59-3.08,2.83,2.83,0,0,0-2.59-3Z"/><path class="cls-4" d="M47.27,93c-.23,0-.59-.42-.6-1s.37-1.08.62-1.08.6.42.6,1S47.52,93,47.27,93Z"/><path class="cls-4" d="M47.29,88.88h0A2.9,2.9,0,0,0,44.67,92a2.85,2.85,0,0,0,2.6,3h0a2.87,2.87,0,0,0,2.59-3.08,2.84,2.84,0,0,0-2.6-3Z"/><polyline class="cls-3" points="45.08 63.82 27.33 64 26.33 75.02 45.12 74.83"/><path class="cls-3" d="M108.75,62l8.35-.08,5.77,6.67.29.33L116.91,75l-.37.36-7.74.08"/></g></g></svg>