<svg xmlns="http://www.w3.org/2000/svg" viewBox="0 0 136 136"><defs><style>.cls-1{fill:#ff4d4d;}.cls-2{fill:#ff0;}</style></defs><title>cersei_1</title><g id="Layer_2" data-name="Layer 2"><g id="Layer_1-2" data-name="Layer 1"><circle class="cls-1" cx="68" cy="68" r="66"/><path class="cls-2" d="M68,4A64,64,0,1,1,4,68,64.07,64.07,0,0,1,68,4m0-4a68,68,0,1,0,68,68A68,68,0,0,0,68,0Z"/><path class="cls-2" d="M68,45A35,35,0,1,1,33,80,35,35,0,0,1,68,45m0-5a40,40,0,1,0,40,40A40,40,0,0,0,68,40Z"/><ellipse class="cls-2" cx="68" cy="31" rx="32.5" ry="8.5"/><path class="cls-2" d="M68,24c8.8,0,17,1,23.2,2.81C97.64,28.7,99,30.69,99,31s-1.36,2.3-7.8,4.19C85,37,76.8,38,68,38s-17-1-23.2-2.81C38.36,33.3,37,31.31,37,31s1.36-2.3,7.8-4.19C51,25,59.2,24,68,24m0-3c-18.78,0-34,4.48-34,10S49.22,41,68,41s34-4.48,34-10S86.78,21,68,21Z"/></g></g></svg>