<svg xmlns="http://www.w3.org/2000/svg" viewBox="0 0 136 136"><defs><style>.cls-1{fill:#4d4d4d;}.cls-2{fill:#ff0;}.cls-3,.cls-4{fill:#f2f2f2;}.cls-3{stroke:#f2f2f2;stroke-miterlimit:10;}</style></defs><title>jaime</title><g id="Layer_2" data-name="Layer 2"><g id="Layer_1-2" data-name="Layer 1"><circle class="cls-1" cx="68" cy="68" r="66"/><path class="cls-2" d="M68,4A64,64,0,1,1,4,68,64.07,64.07,0,0,1,68,4m0-4a68,68,0,1,0,68,68A68,68,0,0,0,68,0Z"/><line class="cls-3" x1="40.86" y1="78.88" x2="62.73" y2="96.49"/><path class="cls-3" d="M89.41,38.19,65,66.39,48,86l6.17,5,17-19.59L95.58,43.15"/><ellipse class="cls-3" cx="36.53" cy="105.31" rx="5.7" ry="3.96" transform="translate(-65.57 60.57) rotate(-47.21)"/><path class="cls-4" d="M41.32,80.31a.87.87,0,0,1-.92-.84,2.46,2.46,0,0,1,.67-1.73,2.56,2.56,0,0,1,1.8-1,.87.87,0,0,1,.92.84,2.44,2.44,0,0,1-.67,1.73,2.56,2.56,0,0,1-1.8,1Z"/><path class="cls-4" d="M42.87,77.28a.45.45,0,0,1,.29.09.37.37,0,0,1,.13.3A1.94,1.94,0,0,1,42.74,79a2.06,2.06,0,0,1-1.42.79.51.51,0,0,1-.29-.08.39.39,0,0,1-.13-.31,1.94,1.94,0,0,1,.55-1.35,2.06,2.06,0,0,1,1.42-.79m0-1a3,3,0,0,0-2.18,1.14c-.93,1.08-1.07,2.46-.29,3.08a1.4,1.4,0,0,0,.92.31,3,3,0,0,0,2.18-1.14c.93-1.08,1.07-2.46.29-3.08a1.4,1.4,0,0,0-.92-.31Z"/><path class="cls-4" d="M62.08,97a.93.93,0,0,1-.61-.19.87.87,0,0,1-.31-.65,2.44,2.44,0,0,1,.67-1.72,2.56,2.56,0,0,1,1.79-1,.86.86,0,0,1,.93.84,2.51,2.51,0,0,1-.67,1.73,2.56,2.56,0,0,1-1.8,1Z"/><path class="cls-4" d="M63.62,94a.54.54,0,0,1,.3.08.43.43,0,0,1,.13.31,1.94,1.94,0,0,1-.55,1.35,2,2,0,0,1-1.42.78.49.49,0,0,1-.3-.08.44.44,0,0,1-.13-.3,2,2,0,0,1,.56-1.35A2,2,0,0,1,63.62,94m0-1a3.06,3.06,0,0,0-2.17,1.13c-.94,1.09-1.07,2.47-.29,3.09a1.4,1.4,0,0,0,.92.3,3,3,0,0,0,2.17-1.13c.94-1.08,1.07-2.46.3-3.09a1.5,1.5,0,0,0-.93-.3Z"/><polyline class="cls-3" points="48.59 86.44 37.06 99.75 41.43 104.6 53.64 90.5"/><path class="cls-3" d="M89.41,38.19l5.43-6.27,6.82-1.83L102,30c0,.25-1.31,6.93-1.31,6.93l-.08.41-5,5.81"/><line class="cls-3" x1="75.98" y1="97.08" x2="96.67" y2="78.09"/><path class="cls-3" d="M43,43,67.25,71.35l16.83,19.7,5.83-5.35L73.09,66,48.86,37.61"/><ellipse class="cls-3" cx="101.46" cy="105.32" rx="3.96" ry="5.7" transform="translate(-43.53 86.26) rotate(-38.58)"/><path class="cls-4" d="M76.57,97.62a2.38,2.38,0,0,1-1.68-.92c-.75-.87-.93-2-.4-2.49A.83.83,0,0,1,75.1,94a2.41,2.41,0,0,1,1.68.93c.74.86.92,2,.4,2.49a.89.89,0,0,1-.61.21Z"/><path class="cls-4" d="M75.1,94.49a1.91,1.91,0,0,1,1.3.75c.63.74.68,1.58.44,1.8a.36.36,0,0,1-.27.08,1.87,1.87,0,0,1-1.3-.74c-.64-.75-.69-1.58-.44-1.81a.36.36,0,0,1,.27-.08m0-1a1.36,1.36,0,0,0-.95.35c-.73.67-.57,2.1.36,3.18a2.84,2.84,0,0,0,2.06,1.1,1.4,1.4,0,0,0,1-.34c.73-.67.57-2.1-.36-3.19a2.88,2.88,0,0,0-2.06-1.1Z"/><path class="cls-4" d="M96.2,79.61a2.39,2.39,0,0,1-1.68-.93c-.74-.86-.93-2-.4-2.49a.89.89,0,0,1,.61-.21,2.4,2.4,0,0,1,1.68.92c.74.87.93,2,.4,2.49a.85.85,0,0,1-.61.22Z"/><path class="cls-4" d="M94.73,76.48a1.89,1.89,0,0,1,1.3.74c.64.75.69,1.58.44,1.81a.36.36,0,0,1-.27.08,1.91,1.91,0,0,1-1.3-.75c-.64-.74-.69-1.58-.44-1.8a.36.36,0,0,1,.27-.08m0-1a1.4,1.4,0,0,0-1,.34c-.73.67-.57,2.1.36,3.19a2.86,2.86,0,0,0,2.06,1.1,1.36,1.36,0,0,0,1-.35c.73-.67.57-2.1-.36-3.19a2.88,2.88,0,0,0-2.06-1.09Z"/><polyline class="cls-3" points="84.61 90.57 96.05 103.97 101.5 100.37 89.38 86.19"/><path class="cls-3" d="M43,43l-5.39-6.31-.78-7,0-.35,6.66,2.33.39.14c1.25,1.45,5,5.84,5,5.84"/></g></g></svg>