<svg xmlns="http://www.w3.org/2000/svg" viewBox="0 0 136 136"><defs><style>.cls-1{fill:#e07ba4;}.cls-2{fill:#ff0;}.cls-3{fill:none;stroke:#f2f2f2;stroke-miterlimit:10;stroke-width:5px;}</style></defs><title>sansa</title><g id="Layer_2" data-name="Layer 2"><g id="Layer_1-2" data-name="Layer 1"><circle class="cls-1" cx="68" cy="68" r="66"/><path class="cls-2" d="M68,4A64,64,0,1,1,4,68,64.07,64.07,0,0,1,68,4m0-4a68,68,0,1,0,68,68A68,68,0,0,0,68,0Z"/><path class="cls-3" d="M69.18,63.5H28.69l.81,1,37.92,46.9L107.5,63.5Z"/><line class="cls-3" x1="42.5" y1="45.5" x2="51.5" y2="63.5"/><line class="cls-3" x1="68.5" y1="44.5" x2="51.5" y2="63.5"/><line class="cls-3" x1="88.5" y1="63.5" x2="68.5" y2="44.5"/><line class="cls-3" x1="94.5" y1="44.5" x2="88.5" y2="63.5"/><line class="cls-3" x1="51.5" y1="63.5" x2="67.5" y2="111.5"/><line class="cls-3" x1="88.5" y1="63.5" x2="67.5" y2="111.5"/><path class="cls-3" d="M110.5,62.5l-16-18h-51l-1,1-17,17"/></g></g></svg>