<svg xmlns="http://www.w3.org/2000/svg" viewBox="0 0 136 136"><defs><style>.cls-1{fill:#ff0;}</style></defs><title>stannis</title><g id="Layer_2" data-name="Layer 2"><g id="Layer_1-2" data-name="Layer 1"><circle class="cls-1" cx="68" cy="68" r="66"/><path class="cls-1" d="M68,4A64,64,0,1,1,4,68,64.07,64.07,0,0,1,68,4m0-4a68,68,0,1,0,68,68A68,68,0,0,0,68,0Z"/><path d="M47.88,90.74c-.45-.83-.89-1.68-1.33-2.55a106.2,106.2,0,0,1-11-52.69h69.85A97,97,0,0,1,68.1,117.06,104.75,104.75,0,0,1,47.88,90.74Z"/></g></g></svg>