<svg xmlns="http://www.w3.org/2000/svg" viewBox="0 0 136 136"><defs><style>.cls-1{fill:#ff0;}.cls-2{fill:#ebff35;stroke:#ff0;}.cls-2,.cls-3,.cls-4{stroke-miterlimit:10;}.cls-3{fill:#ffff10;}.cls-3,.cls-4{stroke:#603813;}</style></defs><title>theon</title><g id="Layer_2" data-name="Layer 2"><g id="Layer_1-2" data-name="Layer 1"><circle cx="68" cy="68" r="66"/><path class="cls-1" d="M68,4A64,64,0,1,1,4,68,64.07,64.07,0,0,1,68,4m0-4a68,68,0,1,0,68,68A68,68,0,0,0,68,0Z"/><path class="cls-2" d="M22.5,51.79C29,55.43,34.58,60.07,34.67,65.62c.14,8.31-12,13.53-11.36,16,1.09,3.83,33.15-3.48,33.27-12.77S24.32,52.19,22.5,51.79Z"/><ellipse class="cls-2" cx="85.79" cy="68.28" rx="29.21" ry="13.3"/><path class="cls-3" d="M94.71,57.11q-25.58-26.4-30-21.28-3.25,3.75,4.87,24.47"/><path class="cls-3" d="M98,70.94q-23.83,28-28.4,23.4-3.44-3.48,4.06-25.53"/><ellipse class="cls-4" cx="106.07" cy="67.75" rx="4.06" ry="2.13"/></g></g></svg>